<svg xmlns="http://www.w3.org/2000/svg" viewBox="0 0 7680 4320" fill="none">
  <defs>
    <linearGradient id="sky" x1="910" y1="144" x2="6393" y2="4114" gradientUnits="userSpaceOnUse">
      <stop offset="0" stop-color="#223843" />
      <stop offset="0.46" stop-color="#203740" />
      <stop offset="1" stop-color="#111A21" />
    </linearGradient>
    <linearGradient id="mist" x1="3840" y1="0" x2="3840" y2="4320" gradientUnits="userSpaceOnUse">
      <stop offset="0" stop-color="#4F6872" stop-opacity="0.22" />
      <stop offset="0.54" stop-color="#203740" stop-opacity="0.06" />
      <stop offset="1" stop-color="#080C10" stop-opacity="0.46" />
    </linearGradient>
    <radialGradient id="lampGlow" cx="0" cy="0" r="1" gradientUnits="userSpaceOnUse" gradientTransform="translate(2560 970) rotate(90) scale(690 650)">
      <stop offset="0" stop-color="#FFC760" stop-opacity="0.96" />
      <stop offset="0.42" stop-color="#F39A33" stop-opacity="0.58" />
      <stop offset="1" stop-color="#E87A1C" stop-opacity="0" />
    </radialGradient>
    <radialGradient id="innerLamp" cx="0" cy="0" r="1" gradientUnits="userSpaceOnUse" gradientTransform="translate(2566 930) rotate(90) scale(240 180)">
      <stop offset="0" stop-color="#FFF4BF" />
      <stop offset="0.34" stop-color="#FFD875" />
      <stop offset="1" stop-color="#FFB43C" stop-opacity="0.1" />
    </radialGradient>
    <linearGradient id="iron" x1="0" y1="0" x2="1" y2="1">
      <stop offset="0" stop-color="#14161A" />
      <stop offset="0.5" stop-color="#050608" />
      <stop offset="1" stop-color="#23262C" />
    </linearGradient>
    <linearGradient id="glass" x1="2564" y1="632" x2="2564" y2="1240" gradientUnits="userSpaceOnUse">
      <stop offset="0" stop-color="#FFEC9A" stop-opacity="0.96" />
      <stop offset="0.62" stop-color="#FFBF53" stop-opacity="0.88" />
      <stop offset="1" stop-color="#F38622" stop-opacity="0.82" />
    </linearGradient>
    <filter id="softBlur" x="-20%" y="-20%" width="140%" height="140%">
      <feGaussianBlur stdDeviation="36" />
    </filter>
    <filter id="broadBlur" x="-20%" y="-20%" width="140%" height="140%">
      <feGaussianBlur stdDeviation="120" />
    </filter>
    <filter id="grain">
      <feTurbulence type="fractalNoise" baseFrequency="0.85" numOctaves="2" stitchTiles="stitch" />
      <feColorMatrix type="saturate" values="0" />
      <feComponentTransfer>
        <feFuncA type="table" tableValues="0 0.08" />
      </feComponentTransfer>
    </filter>
  </defs>

  <rect width="7680" height="4320" fill="url(#sky)" />
  <rect width="7680" height="4320" fill="url(#mist)" />

  <g opacity="0.5">
    <ellipse cx="5840" cy="792" rx="1840" ry="1120" fill="#314A53" />
    <ellipse cx="6368" cy="1760" rx="2520" ry="1480" fill="#1A252D" />
    <ellipse cx="998" cy="2520" rx="1520" ry="1260" fill="#19262E" />
  </g>

  <g filter="url(#broadBlur)" opacity="0.24">
    <circle cx="1940" cy="1180" r="420" fill="#D5872D" />
    <circle cx="3100" cy="812" r="180" fill="#6E8E9D" />
  </g>

  <g opacity="0.8" stroke="url(#iron)" stroke-linecap="round">
    <path d="M0 934C852 846 1424 834 2030 922C2636 1010 3248 1102 4526 956C5562 838 6498 706 7680 844" stroke-width="22" />
    <path d="M0 1118C826 1032 1524 1002 2188 1094C2852 1184 3640 1284 4828 1178C5788 1094 6624 1000 7680 1084" stroke-width="15" opacity="0.85" />
    <path d="M0 1460C1018 1376 1648 1398 2280 1514C2914 1632 3604 1726 4556 1678C5420 1636 6412 1496 7680 1570" stroke-width="16" opacity="0.78" />
  </g>

  <g opacity="0.92" stroke="url(#iron)" stroke-linecap="round" stroke-linejoin="round">
    <path d="M1508 0V2500" stroke-width="44" />
    <path d="M1706 0V2260" stroke-width="18" opacity="0.8" />
    <path d="M1774 770C2084 742 2288 758 2558 858" stroke-width="38" />
    <path d="M1780 1080C2064 1062 2290 1102 2520 1210" stroke-width="28" opacity="0.92" />
    <path d="M1770 1092C2044 1120 2178 1280 2200 1512" stroke-width="24" opacity="0.88" />
    <path d="M1934 1120C2038 1194 2090 1270 2112 1362" stroke-width="16" opacity="0.72" />
    <path d="M1990 1120C1844 1212 1762 1338 1740 1524" stroke-width="20" opacity="0.88" />
    <path d="M1948 1102C1838 1188 1780 1260 1746 1336" stroke-width="14" opacity="0.72" />
    <path d="M2200 1512H2810" stroke-width="26" />
    <path d="M2810 1512C2910 1512 2990 1432 2990 1332V660" stroke-width="26" />
    <path d="M2578 860V646" stroke-width="18" />
    <path d="M2638 860V646" stroke-width="12" opacity="0.76" />
    <path d="M2482 748L2990 660" stroke-width="18" opacity="0.7" />
  </g>

  <g opacity="0.26">
    <ellipse cx="2560" cy="970" rx="770" ry="770" fill="url(#lampGlow)" />
  </g>

  <g>
    <path d="M2334 602L2406 454H2722L2792 602H2334Z" fill="#0C0D10" />
    <path d="M2406 454H2722L2660 360H2464L2406 454Z" fill="#191B20" />
    <path d="M2402 598H2726L2668 1232H2464L2402 598Z" fill="#0D0E12" />
    <path d="M2470 650H2658L2620 1182H2508L2470 650Z" fill="url(#glass)" />
    <path d="M2508 612H2624L2594 1222H2538L2508 612Z" fill="url(#innerLamp)" opacity="0.86" />
    <path d="M2370 612H2750" stroke="#262A30" stroke-width="18" stroke-linecap="round" />
    <path d="M2450 598L2520 1240" stroke="#252930" stroke-width="12" />
    <path d="M2674 598L2602 1240" stroke="#252930" stroke-width="12" />
    <path d="M2562 598V1240" stroke="#252930" stroke-width="10" />
    <path d="M2388 1218H2738" stroke="#0B0C10" stroke-width="24" stroke-linecap="round" />
    <path d="M2426 1260C2488 1310 2514 1384 2514 1478" stroke="#0B0C10" stroke-width="18" stroke-linecap="round" />
    <path d="M2702 1260C2640 1310 2614 1384 2614 1478" stroke="#0B0C10" stroke-width="18" stroke-linecap="round" />
    <path d="M2514 1478H2614" stroke="#0B0C10" stroke-width="18" stroke-linecap="round" />
    <ellipse cx="2560" cy="930" rx="228" ry="276" fill="url(#innerLamp)" filter="url(#softBlur)" opacity="0.72" />
  </g>

  <g opacity="0.7">
    <path d="M6544 0V1868" stroke="#050608" stroke-width="34" />
    <path d="M6786 0V2012" stroke="#08090C" stroke-width="20" />
    <path d="M6290 1190C6508 1152 6658 1154 6884 1228" stroke="#07080B" stroke-width="28" stroke-linecap="round" />
  </g>

  <g filter="url(#grain)" opacity="0.32">
    <rect width="7680" height="4320" fill="#FFF" />
  </g>
</svg>
